<svg width="24" height="24" viewBox="0 0 24 24" fill="none" xmlns="http://www.w3.org/2000/svg">
<path d="M13.6867 6.3696C13.8215 6.39453 13.9734 6.35621 14.1359 6.25279C14.5431 5.99379 15.1027 5.95594 15.4997 6.25926C15.8584 6.53349 16.0006 6.94623 16.0325 7.38205C16.0597 7.75647 16.2536 7.96054 16.6373 7.97208C16.8455 7.97808 17.0689 8.00347 17.2564 8.08565C17.9277 8.38066 18.159 9.20614 17.7688 9.8391C17.5209 10.2412 17.5925 10.4938 18.0094 10.7246C18.4327 10.9591 18.6608 11.3238 18.6594 11.8072C18.658 12.2901 18.4281 12.6535 18.0034 12.8866C17.5962 13.1096 17.5251 13.37 17.7628 13.7601C18.014 14.1719 18.038 14.6008 17.7998 15.0223C17.5615 15.4434 17.1848 15.6451 16.7001 15.6433C16.6082 15.6433 16.5131 15.635 16.4254 15.6553C16.1645 15.7149 16.0302 15.9272 16.0371 16.2472C16.0528 16.9665 15.6105 17.4877 14.9161 17.5583C14.6373 17.587 14.3806 17.5108 14.1447 17.3612C13.7772 17.129 13.4993 17.2056 13.2933 17.5879C13.0574 18.026 12.6885 18.2661 12.1904 18.2628C11.6992 18.2596 11.3363 18.0191 11.105 17.5874C10.9 17.2056 10.6239 17.1317 10.2527 17.3603C9.83539 17.6174 9.40233 17.6437 8.97528 17.4004C8.55562 17.1608 8.35479 16.7832 8.35894 16.298C8.35987 16.2116 8.36725 16.123 8.35017 16.0399C8.29708 15.7823 8.08148 15.6281 7.78369 15.6414C7.26523 15.6645 6.8548 15.4752 6.59811 15.0205C6.34511 14.5727 6.39312 14.1285 6.67105 13.6996C6.86957 13.3931 6.77539 13.087 6.43929 12.9097C5.64152 12.4887 5.48916 11.491 6.13551 10.9019C6.21538 10.8289 6.30864 10.7671 6.40374 10.7154C6.79802 10.5016 6.87373 10.2292 6.63689 9.85202C6.20199 9.15997 6.51455 8.26709 7.2837 8.02471C7.42359 7.98085 7.57779 7.967 7.72506 7.967C7.96744 7.967 8.21629 7.91067 8.31647 7.66599C8.36772 7.54041 8.36171 7.39821 8.38664 7.26617C8.43235 7.02564 8.46744 6.69785 8.63087 6.50579C8.89633 6.19416 9.22505 5.9901 9.6581 6.05289C9.86816 6.08336 10.0824 6.16092 10.2684 6.2648C10.6142 6.45732 10.9106 6.39268 11.0911 6.04365C11.3234 5.59537 11.6899 5.34468 12.1959 5.34375C12.7015 5.34283 13.0694 5.59167 13.303 6.0395C13.4023 6.22971 13.533 6.34005 13.6858 6.36821L13.6867 6.3696Z" fill="white"/>
<path d="M15.3506 15.0888C14.9083 15.0754 14.5538 14.9466 14.2574 14.6728C14.0219 14.4554 13.9951 14.1401 14.1909 13.9189C14.3834 13.7015 14.6877 13.6899 14.9342 13.8903C15.2735 14.1664 15.707 14.05 15.8105 13.6544C15.8617 13.4572 15.7897 13.2975 15.6641 13.147C15.4199 12.8538 15.5141 12.4559 15.8534 12.3192C16.0565 12.2375 16.2698 12.2892 16.4356 12.46C16.8626 12.9014 16.9891 13.5764 16.7357 14.1428C16.4619 14.7555 15.9702 15.0519 15.3506 15.0888V15.0888Z" fill="black"/>
<path d="M10.0423 15.8183C9.46608 15.7869 8.97163 15.4932 8.70616 14.8871C8.44439 14.2897 8.5455 13.7269 8.96747 13.2296C9.18538 12.9725 9.50117 12.9425 9.73062 13.1419C9.95592 13.3377 9.96746 13.6401 9.75878 13.8968C9.55842 14.1438 9.55749 14.4282 9.75648 14.629C9.95361 14.828 10.2505 14.8294 10.4892 14.6331C10.7408 14.4263 11.0515 14.436 11.2449 14.6562C11.443 14.8815 11.4093 15.1987 11.1609 15.4208C10.8654 15.6853 10.5169 15.8146 10.0413 15.8178L10.0423 15.8183Z" fill="black"/>
<path d="M10.4892 14.6331C10.25 14.8294 9.95315 14.8275 9.75648 14.629C9.55749 14.4282 9.55842 14.1438 9.75878 13.8968C9.96746 13.6396 9.95592 13.3377 9.73062 13.1419C9.50117 12.9425 9.18584 12.9725 8.96747 13.2296C8.5455 13.7269 8.44439 14.2897 8.70616 14.8871C8.97163 15.4932 9.46562 15.7864 10.0423 15.8183C10.5178 15.815 10.8663 15.6858 11.1618 15.4212C11.4102 15.1987 11.4439 14.882 11.2458 14.6567C11.0524 14.4365 10.7417 14.4268 10.4901 14.6336L10.4892 14.6331Z" fill="black"/>
<path d="M15.8536 12.3195C15.5138 12.4566 15.4201 12.8546 15.6643 13.1473C15.7894 13.2978 15.8619 13.4575 15.8106 13.6547C15.7072 14.0508 15.2737 14.1667 14.9344 13.8906C14.6883 13.6902 14.3841 13.7018 14.1911 13.9192C13.9949 14.1404 14.0221 14.4557 14.2576 14.6731C14.554 14.9474 14.9085 15.0762 15.3508 15.0891C15.9704 15.0522 16.4621 14.7558 16.7358 14.1431C16.9893 13.5766 16.8623 12.9017 16.4358 12.4603C16.27 12.289 16.0567 12.2373 15.8536 12.3195V12.3195Z" fill="black"/>
<path d="M19.6973 11.7934C19.6949 11.07 19.3861 10.4846 18.8385 10.0225C18.8575 9.96521 18.8741 9.91673 18.8893 9.86779C19.2674 8.67113 18.6132 7.39274 17.4115 7.03818C17.3007 7.0054 17.1774 6.9717 17.0985 6.88305C17.0288 6.80411 16.9858 6.70023 16.9494 6.59174C16.9092 6.47262 16.8769 6.34797 16.8247 6.24502C16.7245 6.0465 16.5962 5.86183 16.4434 5.69978C16.1373 5.37522 15.7356 5.14992 15.2989 5.05805C14.8949 4.97264 14.4979 4.99064 14.1082 5.12453C14.0163 5.15592 13.9605 5.15038 13.8894 5.07143C12.9595 4.04374 11.4369 4.04467 10.5057 5.06959C10.4531 5.1273 10.4171 5.16746 10.3211 5.13561C9.52883 4.87522 8.80169 5.00542 8.14334 5.51788C8.1258 5.53126 8.10594 5.54188 8.08055 5.55804C7.521 5.97955 7.37142 6.80457 7.37142 6.80457C7.32802 6.89552 7.30817 6.94953 7.19875 6.97308C6.20707 7.18684 5.51825 7.96707 5.41021 8.98091C5.37143 9.34287 5.44253 9.68866 5.55564 10.0257C4.99886 10.498 4.69692 11.0862 4.69923 11.8101C4.70154 12.5335 5.00902 13.1194 5.5561 13.5801C5.54964 13.6051 5.54595 13.6217 5.54041 13.6374C5.0875 15.0127 5.8188 16.3142 7.23153 16.6369C7.33771 16.6614 7.34787 16.7181 7.36634 16.8012C7.57963 17.7782 8.36494 18.4808 9.34231 18.5861C9.71627 18.6263 10.0731 18.5598 10.4213 18.4439C10.8949 19.0002 11.4826 19.3031 12.2066 19.3008C12.93 19.2985 13.5159 18.9901 13.9766 18.4439C14.002 18.4508 14.0182 18.455 14.0343 18.4601C15.4124 18.9116 16.7088 18.1826 17.0334 16.7675C17.0579 16.6604 17.1165 16.6521 17.1987 16.6337C18.176 16.4194 18.8787 15.6341 18.9826 14.6577C19.0223 14.2837 18.9567 13.9269 18.8399 13.5792C19.3981 13.1055 19.6996 12.5174 19.6973 11.7934V11.7934ZM13.6862 6.36828C13.821 6.39321 13.9729 6.3549 14.1354 6.25148C14.5426 5.99248 15.1022 5.95462 15.4992 6.25794C15.858 6.53218 16.0002 6.94492 16.032 7.38074C16.0592 7.75516 16.2531 7.95922 16.6368 7.97076C16.845 7.97677 17.0685 8.00216 17.2559 8.08434C17.9272 8.37935 18.1585 9.20482 17.7684 9.83778C17.5205 10.2399 17.592 10.4924 18.0089 10.7233C18.4323 10.9578 18.6603 11.3225 18.6589 11.8059C18.6576 12.2888 18.4276 12.6522 18.0029 12.8853C17.5957 13.1083 17.5246 13.3687 17.7624 13.7588C18.0135 14.1706 18.0375 14.5995 17.7993 15.021C17.5611 15.4421 17.1844 15.6438 16.6996 15.642C16.6077 15.642 16.5126 15.6337 16.4249 15.654C16.164 15.7135 16.0297 15.9259 16.0366 16.2459C16.0523 16.9651 15.61 17.4864 14.9157 17.557C14.6368 17.5856 14.3801 17.5095 14.1442 17.3599C13.7767 17.1277 13.4988 17.2043 13.2929 17.5866C13.057 18.0247 12.6881 18.2648 12.1899 18.2615C11.6987 18.2583 11.3358 18.0178 11.1045 17.5861C10.8995 17.2043 10.6235 17.1304 10.2523 17.359C9.83492 17.6161 9.40187 17.6424 8.97482 17.3991C8.55515 17.1595 8.35433 16.7819 8.35848 16.2966C8.3594 16.2103 8.36679 16.1217 8.34971 16.0386C8.29662 15.7809 8.08101 15.6267 7.78323 15.6401C7.26477 15.6632 6.85434 15.4739 6.59765 15.0192C6.34465 14.5714 6.39266 14.1272 6.67059 13.6983C6.86911 13.3918 6.77493 13.0857 6.43883 12.9084C5.64105 12.4873 5.4887 11.4897 6.13505 10.9006C6.21492 10.8276 6.30817 10.7658 6.40328 10.714C6.79755 10.5003 6.87327 10.2279 6.63643 9.85071C6.20153 9.15866 6.51408 8.26577 7.28324 8.02339C7.42312 7.97954 7.57732 7.96568 7.7246 7.96568C7.96698 7.96568 8.21582 7.90936 8.31601 7.66467C8.36725 7.5391 8.36125 7.3969 8.38618 7.26486C8.43189 7.02433 8.46697 6.69654 8.63041 6.50448C8.89587 6.19285 9.22459 5.98879 9.65764 6.05157C9.8677 6.08204 10.0819 6.15961 10.268 6.26348C10.6138 6.456 10.9102 6.39137 11.0907 6.04234C11.3229 5.59405 11.6895 5.34336 12.1955 5.34244C12.701 5.34152 13.069 5.59036 13.3026 6.03819C13.4018 6.2284 13.5325 6.33874 13.6853 6.3669L13.6862 6.36828Z" fill="black"/>
<path d="M13.3227 8.52557C13.1403 8.39861 12.9284 8.30766 12.7045 8.2421C12.5046 8.18347 12.2964 8.15808 12.0881 8.17146C11.8121 8.18901 11.5457 8.27534 11.3024 8.40461C11.1177 8.50249 10.987 8.63314 10.8499 8.7878C10.7003 8.95631 10.5337 9.01125 10.3342 8.89861C10.1445 8.7915 9.87486 8.76795 9.65925 8.80165C9.37486 8.84597 9.10432 9.00433 8.88779 9.19362C8.44089 9.58466 8.2022 10.1765 8.25022 10.7684C8.27561 11.0823 8.49583 11.2929 8.78761 11.2822C9.07893 11.2721 9.29084 11.0279 9.2853 10.7088C9.27653 10.2116 9.53368 9.86674 9.98058 9.77856C10.1939 9.73655 10.3919 9.78225 10.5775 9.89121C10.9764 10.1248 11.2206 10.0602 11.445 9.66499C11.6121 9.36998 11.8675 9.20931 12.2063 9.21301C12.5452 9.2167 12.7959 9.38244 12.9593 9.67976C13.108 9.9503 13.2945 10.0579 13.5383 10.0163C13.7215 9.98493 13.8707 9.86397 13.9348 9.689C14.0189 9.46139 13.8628 9.23701 13.7645 9.03434C13.6601 8.81966 13.5064 8.65392 13.3222 8.52557H13.3227Z" fill="black"/>
</svg>
