<svg width="24" height="24" viewBox="0 0 24 24" fill="none" xmlns="http://www.w3.org/2000/svg">
<g clip-path="url(#clip0_2757_59903)">
<path fill-rule="evenodd" clip-rule="evenodd" d="M5.35348 6.64652C5.54874 6.45126 5.86532 6.45126 6.06058 6.64652L8.35348 8.93942C8.54874 9.13468 8.54874 9.45126 8.35348 9.64652C8.15822 9.84178 7.84163 9.84178 7.64637 9.64652L5.35348 7.35363C5.15822 7.15837 5.15822 6.84178 5.35348 6.64652Z" fill="black"/>
<path fill-rule="evenodd" clip-rule="evenodd" d="M3.5 10.6016C3.5 10.3254 3.72386 10.1016 4 10.1016H7C7.27614 10.1016 7.5 10.3254 7.5 10.6016C7.5 10.8777 7.27614 11.1016 7 11.1016H4C3.72386 11.1016 3.5 10.8777 3.5 10.6016Z" fill="black"/>
<path fill-rule="evenodd" clip-rule="evenodd" d="M3.86964 13.6148C3.79817 13.3481 3.95646 13.0739 4.2232 13.0024L7.35535 12.1632C7.62208 12.0917 7.89625 12.25 7.96772 12.5167C8.03919 12.7835 7.8809 13.0576 7.61417 13.1291L4.48202 13.9684C4.21528 14.0398 3.94111 13.8815 3.86964 13.6148Z" fill="black"/>
<path d="M17.1314 0.722186L16.2732 2.20855C15.8024 3.02406 15.335 3.84158 14.8582 4.65367C14.7397 4.85545 14.6042 5.05134 14.4501 5.22663C13.9519 5.79317 13.3194 6.13352 12.5809 6.26733C11.9873 6.37446 11.5107 6.65292 11.1897 7.1678C10.7595 7.85684 10.7907 8.69531 11.257 9.31794C11.7512 9.97788 12.5499 10.2468 13.3484 10.032C13.4891 9.99427 13.6468 9.96375 13.7865 9.98829C14.1001 10.0425 14.2297 10.2779 14.3029 10.5711C14.6551 11.9828 16.3425 12.5236 17.4188 11.5748C18.0361 11.0308 18.2379 10.235 17.9554 9.41191C17.6062 8.39313 17.6891 7.42566 18.2459 6.49458C18.7143 5.7107 19.1614 4.91452 19.6179 4.12378L20.4692 2.64931L17.1314 0.722186ZM22.2279 2.17304C21.657 3.16197 19.9857 6.09331 19.3937 7.06944C19.0008 7.7179 18.9393 8.36806 19.1945 9.07362C19.4299 9.72418 19.4354 10.3886 19.23 11.0488C18.78 12.4941 17.5709 13.1661 16.1524 13.3426C16.1029 13.3346 16.0751 13.3278 16.0473 13.3256C14.7749 13.2364 13.8399 12.6351 13.2716 11.4865C13.2181 11.379 13.155 11.3716 13.0537 11.3799C12.4109 11.4315 11.8069 11.2969 11.2439 10.9824C9.89952 10.232 9.23592 8.4259 9.83869 7.00085C10.2885 5.93801 11.0759 5.27555 12.205 5.03959C12.7384 4.92807 13.2124 4.73071 13.5591 4.29272C13.634 4.19854 13.6996 4.09508 13.76 3.99054C14.3573 2.95937 16.0683 -0.00649185 16.6647 -1.03824" fill="black"/>
<path d="M17.1311 0.723758L16.273 2.21012C15.8022 3.02564 15.3348 3.84315 14.858 4.65524C14.7395 4.85702 14.604 5.05291 14.4499 5.22821C13.9517 5.79474 13.3192 6.13509 12.5807 6.2689C11.9871 6.37603 11.5105 6.65449 11.1895 7.16937C10.7593 7.85841 10.7905 8.69688 11.2568 9.31951C11.751 9.97945 12.5497 10.2483 13.3482 10.0335C13.4889 9.99584 13.6465 9.96532 13.7863 9.98986C14.0998 10.0441 14.2295 10.2794 14.3026 10.5727C14.6549 11.9843 16.3423 12.5252 17.4186 11.5763C18.0359 11.0323 18.2377 10.2365 17.9552 9.41348C17.606 8.3947 17.6889 7.42723 18.2456 6.49615C18.7141 5.71227 19.1612 4.91609 19.6177 4.12535L20.469 2.65088L17.1311 0.723758Z" fill="white"/>
<path d="M15.0626 25.3293L15.0626 23.613C15.0626 22.6713 15.0586 21.7296 15.0655 20.788C15.0672 20.554 15.0867 20.3165 15.1324 20.0877C15.2806 19.348 15.6582 18.737 16.2309 18.2518C16.6914 17.8622 16.9649 17.3828 16.9855 16.7764C17.0135 15.9646 16.5673 15.254 15.8521 14.948C15.0941 14.6236 14.268 14.7901 13.6839 15.3753C13.5809 15.4783 13.4596 15.5836 13.3263 15.6322C13.0277 15.742 12.7977 15.603 12.5877 15.3856C11.5768 14.3392 9.84507 14.7145 9.38739 16.0744C9.1248 16.8542 9.34792 17.6443 10.0041 18.2158C10.8159 18.9235 11.2278 19.8028 11.2112 20.8875C11.1975 21.8006 11.2084 22.7136 11.2084 23.6267L11.2084 25.3293L15.0626 25.3293ZM9.92345 26.6211C9.92345 25.4792 9.90514 22.1049 9.92974 20.9636C9.94576 20.2056 9.67401 19.6117 9.1002 19.1283C8.571 18.6826 8.23404 18.11 8.08186 17.4354C7.74889 15.9589 8.46002 14.7723 9.60021 13.9102C9.64712 13.8924 9.67458 13.8844 9.69976 13.8724C10.8462 13.3135 11.9567 13.3667 13.0231 14.0772C13.1232 14.1436 13.1816 14.1184 13.2651 14.0606C13.796 13.6945 14.3864 13.5091 15.0312 13.5C16.5707 13.4777 18.0484 14.71 18.2389 16.2455C18.3808 17.3908 18.0301 18.3582 17.1702 19.1271C16.7641 19.4904 16.4523 19.8983 16.371 20.451C16.3533 20.57 16.3481 20.6924 16.3481 20.8131C16.3464 22.0048 16.3476 25.4288 16.347 26.6205" fill="black"/>
<path d="M15.0622 25.3281L15.0622 23.6118C15.0622 22.6701 15.0582 21.7285 15.0651 20.7868C15.0668 20.5528 15.0863 20.3154 15.132 20.0865C15.2802 19.3468 15.6578 18.7358 16.2305 18.2507C16.691 17.8611 16.9645 17.3816 16.9851 16.7752C17.0131 15.9634 16.5669 15.2529 15.8517 14.9468C15.0937 14.6224 14.2676 14.7889 13.6835 15.3741C13.5805 15.4771 13.4592 15.5824 13.3259 15.631C13.0273 15.7409 12.7973 15.6018 12.5873 15.3844C11.5764 14.3381 9.84469 14.7134 9.38701 16.0733C9.12442 16.853 9.34754 17.6431 10.0037 18.2146C10.8155 18.9223 11.2275 19.8016 11.2109 20.8863C11.1971 21.7994 11.208 22.7125 11.208 23.6256L11.208 25.3281L15.0622 25.3281Z" fill="white"/>
</g>
<defs>
<clipPath id="clip0_2757_59903">
<rect width="24" height="24" rx="12" fill="white"/>
</clipPath>
</defs>
</svg>
