<svg width="24" height="24" viewBox="0 0 24 24" fill="none" xmlns="http://www.w3.org/2000/svg">
<path d="M4.81847 14.4674C5.27448 14.228 5.70957 13.9957 6.148 13.7695C6.59815 13.5363 6.84666 13.6449 7.0073 14.1494C7.31689 15.1186 7.62396 16.0877 7.92852 17.0587C8.05235 17.4518 7.9486 17.739 7.65241 17.8503C7.36374 17.9598 7.10938 17.7911 6.98304 17.3971C6.75545 16.6885 6.53289 15.9791 6.30698 15.2705C6.27435 15.1689 6.23753 15.0691 6.18984 14.9339C5.733 15.1733 5.29874 15.4022 4.86198 15.6283C4.36414 15.8863 4.11313 15.7697 3.9575 15.2007C3.64959 14.0699 3.34503 12.9381 3.04046 11.8064C2.93253 11.4027 3.04297 11.1244 3.34252 11.0254C3.63369 10.9291 3.88638 11.1102 3.99515 11.506C4.24282 12.4036 4.48546 13.3021 4.73062 14.1997C4.75321 14.2819 4.78333 14.3623 4.81847 14.4674V14.4674Z" fill="black"/>
<path d="M17.8185 14.4154C18.2745 14.6548 18.7096 14.8871 19.148 15.1133C19.5982 15.3466 19.8467 15.2379 20.0073 14.7334C20.3169 13.7642 20.624 12.7951 20.9285 11.8241C21.0524 11.431 20.9486 11.1438 20.6524 11.0325C20.3637 10.923 20.1094 11.0917 19.983 11.4858C19.7555 12.1943 19.5329 12.9037 19.307 13.6123C19.2743 13.7139 19.2375 13.8137 19.1898 13.9489C18.733 13.7095 18.2987 13.4806 17.862 13.2545C17.3641 12.9965 17.1131 13.1131 16.9575 13.6821C16.6496 14.8129 16.345 15.9447 16.0405 17.0764C15.9325 17.4802 16.043 17.7585 16.3425 17.8574C16.6337 17.9537 16.8864 17.7726 16.9951 17.3768C17.2428 16.4792 17.4855 15.5807 17.7306 14.6831C17.7532 14.6009 17.7833 14.5205 17.8185 14.4154V14.4154Z" fill="black"/>
<path d="M13.4007 9.93461C14.0469 9.93461 14.6512 9.90786 15.2526 9.94687C15.5224 9.9647 15.8291 10.0461 16.0432 10.2166C16.4892 10.5732 16.5081 11.1861 16.1467 11.7745C14.9659 13.6969 13.78 15.6171 12.5962 17.5373C12.413 17.8348 12.2328 18.1346 12.0466 18.4288C11.715 18.9515 11.2869 19.1198 10.8249 18.9158C10.352 18.7074 10.131 18.2293 10.2315 17.5874C10.4326 16.3025 10.6427 15.0187 10.8478 13.7348C10.8717 13.5855 10.8886 13.435 10.9175 13.2177C10.7015 13.2177 10.5103 13.2177 10.3181 13.2177C9.87108 13.2177 9.42403 13.2311 8.97698 13.2133C8.29396 13.1854 7.8499 12.5335 8.04704 11.8046C8.58967 9.78527 9.15222 7.77261 9.71875 5.76217C9.84619 5.31305 10.1469 5.02999 10.575 5.02219C11.5806 5.00324 12.5872 4.98207 13.5909 5.02553C14.2898 5.05673 14.6562 5.7566 14.4262 6.53336C14.1385 7.50849 13.8318 8.47582 13.5351 9.44649C13.4923 9.5869 13.4565 9.73067 13.3997 9.93461H13.4007ZM13.338 6.25475C12.4807 6.25475 11.6892 6.24695 10.8976 6.26701C10.819 6.26924 10.7064 6.41969 10.6736 6.52667C10.5193 7.02482 10.3878 7.53078 10.2474 8.0345C9.88801 9.3317 9.52957 10.6278 9.1572 11.9718C9.81533 11.9718 10.4336 11.9629 11.0509 11.974C11.7439 11.9863 12.1641 12.5769 12.0406 13.3437C11.959 13.8496 11.8743 14.3545 11.7947 14.8604C11.6822 15.5781 11.5727 16.2958 11.4621 17.0146L11.5428 17.0525C12.7316 15.1223 13.9214 13.1921 15.157 11.1872C14.5039 11.1872 13.9463 11.1928 13.3887 11.1861C12.4469 11.1739 12.0287 10.5186 12.3314 9.53007C12.6559 8.4669 12.9845 7.40596 13.338 6.25586V6.25475Z" fill="black"/>
<path d="M13.339 6.25617C12.9855 7.40515 12.6569 8.4672 12.3324 9.53037C12.0307 10.5189 12.4479 11.1742 13.3898 11.1864C13.9473 11.1931 14.5039 11.1875 15.158 11.1875C13.9224 13.1924 12.7336 15.1226 11.5438 17.0528L11.4632 17.0149C11.5737 16.2972 11.6832 15.5784 11.7957 14.8607C11.8754 14.3548 11.96 13.8499 12.0416 13.344C12.1651 12.5761 11.7449 11.9866 11.0519 11.9743C10.4346 11.9632 9.81633 11.9721 9.1582 11.9721C9.53058 10.6292 9.88902 9.332 10.2484 8.0348C10.3878 7.53108 10.5203 7.02401 10.6746 6.52697C10.7074 6.41999 10.82 6.26954 10.8986 6.26731C11.6892 6.24836 12.4807 6.25505 13.339 6.25505V6.25617Z" fill="white"/>
</svg>
