<svg width="24" height="24" viewBox="0 0 24 24" fill="none" xmlns="http://www.w3.org/2000/svg">
<path d="M11.2615 18.9987C11.2557 18.1123 11.2583 14.633 11.2589 13.7466C11.2594 12.0365 12.439 10.7967 14.1497 10.7084C14.1623 10.7078 14.1748 10.7031 14.1889 10.7C14.2119 10.6383 14.1576 10.6064 14.1325 10.5657C13.5272 9.58777 13.4546 8.57223 14.0044 7.56088C14.5569 6.54482 15.447 6.02163 16.6073 6.01954C18.5192 6.01588 19.8692 7.09518 20.4065 9.028C20.5304 9.47435 20.6051 9.93012 20.6459 10.3916C20.6496 10.434 20.6308 10.4852 20.6841 10.5129V12.1556C20.6334 12.3861 20.6438 12.6218 20.6245 12.8549C20.5398 13.8647 20.1499 14.747 19.4809 15.4944C18.884 16.1613 18.1047 16.5068 17.224 16.6291C16.7427 16.696 16.2608 16.7117 15.7914 16.5664C14.5919 16.1948 13.8455 15.3951 13.5952 14.1621C13.4556 13.4743 13.5879 12.8157 13.9166 12.1969C13.9406 12.152 13.9882 12.1044 13.9569 12.0547C13.9177 11.992 13.8502 12.027 13.7959 12.038C13.095 12.1797 12.5488 12.8419 12.5342 13.6097C12.5164 14.5081 12.5274 18.1003 12.5315 18.9992H11.2625L11.2615 18.9987Z" fill="black"/>
<path d="M11.2925 18.9995C11.281 18.0545 11.2946 14.5565 11.2841 13.6115C11.2742 12.7177 10.5874 11.9813 9.6994 11.8898C9.64243 11.8841 9.58441 11.8893 9.52483 11.8893C9.52274 11.9693 9.58023 12.0111 9.61264 12.0649C10.1949 13.0376 10.256 14.0421 9.71194 15.0373C9.16471 16.0377 8.28664 16.5598 7.14357 16.5713C5.37697 16.5891 4.04208 15.6865 3.47238 14.016C2.83107 12.1365 2.82845 10.2298 3.55234 8.37124C4.22972 6.63338 6.01723 5.6999 7.76868 6.08667C9.77205 6.52937 10.7139 8.82544 9.59853 10.5476C9.57083 10.5905 9.54365 10.6333 9.50288 10.6971C9.79087 10.7196 10.059 10.7452 10.3198 10.8189C11.5732 11.1743 12.4491 12.3085 12.4591 13.6083C12.4664 14.534 12.4633 18.0733 12.458 18.999L11.2925 18.9995Z" fill="black"/>
<path d="M4.20703 11.3052C4.21696 10.4715 4.29797 9.65984 4.59955 8.88159C5.13842 7.49235 6.33689 7.05175 7.47682 7.22841C8.34183 7.36221 8.96432 8.20265 8.89742 9.08439C8.83104 9.95828 8.10297 10.667 7.22908 10.7041C7.05346 10.7114 6.87732 10.712 6.70171 10.7057C6.59822 10.702 6.55014 10.724 6.55327 10.8426C6.56111 11.1421 6.56059 11.4421 6.55327 11.7416C6.55066 11.8545 6.58777 11.8838 6.697 11.8838C6.9505 11.8838 7.20399 11.866 7.45696 11.912C8.33765 12.0719 8.96485 12.8789 8.89742 13.7732C8.83104 14.6508 8.08677 15.3684 7.21078 15.3992C5.94855 15.4436 5.05009 14.8536 4.5891 13.6739C4.29013 12.9092 4.21853 12.108 4.20703 11.3057V11.3052Z" fill="#FEFEFE"/>
<path d="M19.5121 11.3417C19.498 12.1576 19.4154 13.0017 19.0804 13.8045C18.5159 15.1546 17.2991 15.534 16.2381 15.3631C15.3815 15.2256 14.7663 14.4014 14.8217 13.5223C14.876 12.652 15.6057 11.9302 16.4759 11.889C16.6646 11.8801 16.8538 11.8816 17.0425 11.8863C17.135 11.8884 17.1674 11.8586 17.1658 11.7646C17.1611 11.4583 17.159 11.152 17.1669 10.8462C17.17 10.7276 17.1209 10.7093 17.0179 10.7093C16.7064 10.7098 16.3949 10.7281 16.0871 10.6387C15.2795 10.4041 14.7292 9.59916 14.8253 8.77544C14.9273 7.89893 15.6506 7.22104 16.513 7.19334C17.9247 7.14839 18.8744 7.889 19.2748 9.34776C19.4504 9.98698 19.5058 10.6403 19.5126 11.3417H19.5121Z" fill="#FEFEFE"/>
</svg>
