<svg width="24" height="24" viewBox="0 0 24 24" fill="none" xmlns="http://www.w3.org/2000/svg">
<path d="M15.7901 15.9087C15.6501 15.92 15.5091 15.9252 15.3686 15.9252C13.2056 15.9261 12.4265 15.9261 10.2635 15.9261H9.33399C9.31426 15.9261 9.29546 15.9294 9.27713 15.9346C9.0074 15.9581 8.79594 16.1841 8.79594 16.4595C8.79594 16.7508 9.03231 16.9867 9.32319 16.9867C9.34809 16.9867 9.37206 16.9843 9.39602 16.9811C9.92232 16.982 10.0469 16.9632 10.6037 16.9937C11.9979 17.0694 13.1135 18.231 13.1572 19.6276C13.1638 19.8358 13.1605 20.0444 13.1591 20.2596C13.1586 20.3541 13.0815 20.4302 12.9876 20.4302H11.7489C11.654 20.4302 11.5774 20.3531 11.5774 20.2582C11.5774 20.1064 11.5774 19.9542 11.5774 19.8024C11.575 19.0557 11.0905 18.5675 10.3476 18.5637C9.97261 18.5618 9.59714 18.5689 9.22215 18.5618C8.16908 18.5435 7.34579 17.9054 7.11319 16.9331C6.79694 15.6108 7.8002 14.3467 9.17845 14.3434C11.4002 14.3387 13.1516 14.342 15.3733 14.342H15.6087C15.6087 14.342 15.6106 14.3411 15.6106 14.3401V14.3369C15.9015 14.3359 16.1364 14.1005 16.1364 13.8096C16.1364 13.5187 15.9001 13.2824 15.6092 13.2824C15.5862 13.2824 15.5641 13.2843 15.542 13.2871H15.3879C13.2014 13.2871 11.4853 13.2843 9.29875 13.2885C8.48862 13.2899 7.83121 12.9948 7.39231 12.304C6.95389 11.6147 6.92663 10.8835 7.31901 10.1683C7.71796 9.44178 8.35705 9.06961 9.18926 9.06773C11.4049 9.06256 13.1506 9.06585 15.3663 9.06585H15.6054C15.6054 9.06585 15.6054 9.06538 15.6064 9.06491C15.6073 9.06491 15.6083 9.06491 15.6092 9.06491C15.9006 9.06491 16.1364 8.82854 16.1364 8.53767C16.1364 8.24679 15.9001 8.01042 15.6092 8.01042C15.6073 8.01042 15.6054 8.01042 15.6031 8.01042C15.5425 8.01042 15.4772 8.01042 15.4118 8.01042C14.8259 8.0062 14.7084 8.02499 14.1238 7.99257C12.7183 7.9155 11.5976 6.72662 11.5783 5.3183C11.5755 5.1214 11.5769 4.92451 11.5774 4.72245C11.5774 4.62987 11.653 4.55469 11.7456 4.55469H12.9909C13.0839 4.55469 13.1596 4.63034 13.1591 4.72339C13.1591 4.89302 13.1581 5.05937 13.1591 5.22572C13.1643 5.90099 13.6097 6.38406 14.2859 6.41836C14.7009 6.43951 15.1181 6.42588 15.534 6.42729C16.6317 6.43152 17.5593 7.24024 17.6618 8.28297C17.7732 9.4164 17.0612 10.3887 15.949 10.6067C15.7666 10.6424 15.5758 10.6466 15.3893 10.6466C13.2206 10.6495 11.5214 10.6485 9.35279 10.6485H9.34386C9.33728 10.6485 9.3307 10.6499 9.32413 10.6504C9.32319 10.6504 9.32225 10.6504 9.32178 10.6504C9.03043 10.6504 8.79453 10.8868 8.79453 11.1776C8.79453 11.4685 9.0309 11.7049 9.32178 11.7049C9.33211 11.7049 9.34198 11.7039 9.35185 11.7035C11.5637 11.7035 13.308 11.7025 15.5213 11.7035C16.5993 11.7039 17.4447 12.4046 17.6467 13.4595C17.8695 14.6226 16.9658 15.8133 15.7882 15.9068L15.7901 15.9087Z" fill="white"/>
<path d="M17.467 11.2836C17.4224 11.2498 17.3796 11.2141 17.3368 11.1798C17.3472 11.1647 17.3495 11.1591 17.3538 11.1553C17.3857 11.13 17.4186 11.1055 17.451 11.0802C18.279 10.4373 18.7198 9.59477 18.7297 8.53605C18.7452 6.85236 17.4087 5.46705 15.7274 5.38341C15.289 5.36179 14.8487 5.37448 14.4093 5.37589C14.2688 5.37589 14.2119 5.32561 14.2138 5.17853C14.2204 4.68042 14.2162 4.81904 14.2162 4.32047V3.92527C14.2162 3.83646 14.2415 3.5 13.8877 3.5H10.9484C10.7134 3.5 10.5231 3.69031 10.5231 3.92527V4.29932C10.5231 4.82703 10.5231 4.71754 10.5231 5.24526C10.5245 6.26497 10.8817 7.14323 11.5734 7.88851C11.6016 7.91906 11.6265 7.95289 11.6716 8.00928C11.6725 8.01069 11.6716 8.01257 11.6702 8.01257H11.4531C10.6805 8.01257 9.908 8.01116 9.13594 8.01398C8.98368 8.01445 8.83096 8.02432 8.68059 8.04828C7.42404 8.25129 6.40198 9.17795 6.09842 10.3922C5.78311 11.6535 6.24832 12.9476 7.29623 13.7267C7.331 13.7526 7.36296 13.7822 7.40196 13.8155C7.4029 13.8165 7.4029 13.8183 7.40196 13.8193C7.37047 13.8442 7.34886 13.8625 7.3263 13.8794C6.52698 14.4739 6.08573 15.2643 6.00867 16.2581C5.88743 17.8243 7.05234 19.3323 8.60728 19.5564C9.1599 19.6363 9.72897 19.6039 10.2905 19.6194C10.5076 19.6255 10.5217 19.6349 10.5222 19.8468C10.5226 20.102 10.5231 20.3572 10.5236 20.6123C10.5245 21.1025 10.9221 21.4995 11.4122 21.4995H13.3304C13.821 21.4995 14.219 21.102 14.219 20.6114C14.219 20.3097 14.2185 20.008 14.2138 19.7063C14.1992 18.7294 13.8647 17.8756 13.2058 17.1514C13.165 17.1068 13.126 17.0598 13.0611 16.9851C13.0602 16.9837 13.0611 16.9813 13.0625 16.9813H13.282C13.9911 16.9813 14.7002 16.9832 15.4093 16.9799C15.5968 16.979 15.7852 16.9762 15.9708 16.9527C17.2499 16.7896 18.2955 15.8672 18.6305 14.613C18.9595 13.3818 18.4971 12.058 17.4675 11.2827L17.467 11.2836ZM15.7899 15.9095C15.6499 15.9207 15.5089 15.9259 15.3684 15.9259C13.2054 15.9268 12.4263 15.9268 10.2633 15.9268H9.33377C9.31403 15.9268 9.29524 15.9301 9.27691 15.9353C9.00718 15.9588 8.79572 16.1848 8.79572 16.4602C8.79572 16.7515 9.03208 16.9874 9.32296 16.9874C9.34787 16.9874 9.37183 16.9851 9.3958 16.9818C9.9221 16.9827 10.0466 16.9639 10.6035 16.9945C11.9977 17.0701 13.1133 18.2318 13.157 19.6283C13.1636 19.8365 13.1603 20.0452 13.1589 20.2604C13.1584 20.3548 13.0813 20.4309 12.9873 20.4309H11.7486C11.6537 20.4309 11.5771 20.3539 11.5771 20.259C11.5771 20.1072 11.5771 19.9549 11.5771 19.8031C11.5748 19.0565 11.0903 18.5682 10.3474 18.5645C9.97238 18.5626 9.59692 18.5696 9.22193 18.5626C8.16886 18.5443 7.34557 17.9061 7.11296 16.9339C6.79671 15.6115 7.79997 14.3475 9.17823 14.3442C11.4 14.3395 13.1513 14.3428 15.3731 14.3428H15.6085C15.6085 14.3428 15.6104 14.3418 15.6104 14.3409V14.3376C15.9013 14.3367 16.1362 14.1012 16.1362 13.8104C16.1362 13.5195 15.8999 13.2831 15.609 13.2831C15.586 13.2831 15.5639 13.285 15.5418 13.2878H15.3877C13.2011 13.2878 11.485 13.285 9.29853 13.2892C8.4884 13.2906 7.83099 12.9955 7.39209 12.3048C6.95366 11.6154 6.92641 10.8842 7.31878 10.169C7.71774 9.44251 8.35682 9.07034 9.18904 9.06846C11.4047 9.06329 13.1504 9.06658 15.366 9.06658H15.6052C15.6052 9.06658 15.6052 9.06611 15.6062 9.06564C15.6071 9.06564 15.608 9.06564 15.609 9.06564C15.9003 9.06564 16.1362 8.82928 16.1362 8.5384C16.1362 8.24753 15.8999 8.01116 15.609 8.01116C15.6071 8.01116 15.6052 8.01116 15.6029 8.01116C15.5423 8.01116 15.4769 8.01116 15.4116 8.01116C14.8256 8.00693 14.7082 8.02573 14.1236 7.9933C12.7181 7.91624 11.5973 6.72736 11.5781 5.31903C11.5753 5.12214 11.5767 4.92524 11.5771 4.72318C11.5771 4.63061 11.6528 4.55542 11.7454 4.55542H12.9906C13.0837 4.55542 13.1593 4.63108 13.1589 4.72412C13.1589 4.89376 13.1579 5.06011 13.1589 5.22646C13.164 5.90172 13.6095 6.38479 14.2857 6.4191C14.7006 6.44024 15.1179 6.42662 15.5338 6.42803C16.6315 6.43225 17.5591 7.24097 17.6616 8.28371C17.7729 9.41714 17.061 10.3894 15.9487 10.6074C15.7664 10.6431 15.5756 10.6474 15.3891 10.6474C13.2204 10.6502 11.5212 10.6492 9.35257 10.6492H9.34364C9.33706 10.6492 9.33048 10.6507 9.3239 10.6511C9.32296 10.6511 9.32202 10.6511 9.32155 10.6511C9.03021 10.6511 8.79431 10.8875 8.79431 11.1784C8.79431 11.4692 9.03068 11.7056 9.32155 11.7056C9.33189 11.7056 9.34176 11.7047 9.35163 11.7042C11.5635 11.7042 13.3078 11.7033 15.5211 11.7042C16.5991 11.7047 17.4445 12.4053 17.6465 13.4603C17.8693 14.6233 16.9656 15.8141 15.788 15.9076L15.7899 15.9095Z" fill="black"/>
</svg>
