<svg width="24" height="24" viewBox="0 0 24 24" fill="none" xmlns="http://www.w3.org/2000/svg">
<g clip-path="url(#clip0_2757_59906)">
<path d="M8.96772 19.1988H8.51411C7.86566 19.142 7.55793 18.6828 7.28616 18.2044C6.92347 17.5672 6.73963 16.8683 6.60374 16.1579C6.48584 15.5438 6.40891 14.9258 6.36994 14.303C6.34297 13.8717 6.34397 13.4395 6.31599 13.0083C6.29801 12.734 6.22107 12.4692 6.13614 12.2093C6.00026 11.7916 5.8334 11.3854 5.68553 10.9714C5.47071 10.3717 5.27588 9.76531 5.21793 9.13096C5.13101 8.18954 5.34282 7.32224 5.93931 6.55409C6.24205 6.1652 6.57377 5.80904 6.99841 5.53951C7.33911 5.32485 7.7028 5.20645 8.11445 5.20068C8.38322 5.19683 8.65099 5.20068 8.91976 5.21127C9.29943 5.22667 9.65613 5.3364 10.0128 5.4471C10.4445 5.5809 10.8751 5.71855 11.3147 5.82829C12.0071 6.0006 12.6825 5.93225 13.356 5.74262C13.8325 5.60882 14.3011 5.44999 14.7777 5.31811C15.0215 5.25073 15.2703 5.21897 15.5201 5.21415C15.9567 5.20645 16.3983 5.1641 16.822 5.32004C17.1607 5.44518 17.4664 5.62422 17.7382 5.85621C18.2637 6.3067 18.7024 6.81976 18.9641 7.457C19.113 7.8199 19.18 8.1982 19.1959 8.58998C19.2259 9.34658 19.0301 10.0618 18.8003 10.7722C18.6424 11.2593 18.4486 11.7338 18.2897 12.2209C18.1878 12.5347 18.1229 12.8524 18.1099 13.1845C18.0789 13.993 18.0619 14.8035 17.943 15.6073C17.8201 16.4438 17.6493 17.2687 17.2756 18.0417C17.1117 18.3805 16.8879 18.6761 16.5962 18.9244C16.3734 19.114 16.1076 19.1805 15.8198 19.1872C15.588 19.193 15.3572 19.1853 15.1294 19.1468C14.7927 19.09 14.5399 18.8965 14.3241 18.6597C13.9494 18.2496 13.7656 17.7452 13.6087 17.2312C13.4339 16.6585 13.326 16.0694 13.1571 15.4956C13.0782 15.2271 12.9793 14.9681 12.8434 14.7208C12.5367 14.1615 11.8662 14.2221 11.5425 14.6928C11.2957 15.0519 11.1618 15.4543 11.0309 15.8585C10.8721 16.3495 10.7542 16.8529 10.5943 17.3438C10.4395 17.8184 10.2636 18.2852 9.93988 18.6838C9.84297 18.8022 9.72807 18.9023 9.60917 19.0005C9.42233 19.1545 9.19153 19.1651 8.96772 19.2007V19.1988Z" fill="black"/>
<path d="M17.9351 8.74776C17.9251 9.39848 17.7313 10.0117 17.5195 10.621C17.3976 10.9704 17.2727 11.3179 17.1428 11.6644C16.901 12.3065 16.8301 12.9707 16.8211 13.6493C16.8081 14.6437 16.7072 15.6303 16.4564 16.5987C16.3585 16.9789 16.2386 17.3524 16.0298 17.6932C16.0128 17.7201 15.9948 17.7471 15.9778 17.774C15.723 18.1831 15.3803 18.0099 15.1985 17.7625C15.0156 17.5132 14.9217 17.2253 14.8418 16.9346C14.6829 16.3542 14.546 15.7689 14.3812 15.1895C14.2403 14.6928 14.0465 14.2172 13.7187 13.7966C12.9934 12.8667 11.4597 12.8648 10.6853 13.7687C10.3107 14.2057 10.0889 14.7139 9.90302 15.2414C9.66522 15.9181 9.52234 16.6208 9.27755 17.2956C9.21161 17.4766 9.13867 17.6537 9.03276 17.8164C8.99779 17.8703 8.95983 17.9232 8.91287 17.9675C8.80096 18.0734 8.73402 18.0724 8.62711 17.9598C8.38232 17.7018 8.25443 17.3822 8.14153 17.0579C7.83679 16.18 7.7109 15.2694 7.63496 14.351C7.595 13.8736 7.59799 13.3952 7.57601 12.9177C7.55403 12.4258 7.39017 11.9628 7.22531 11.5027C7.0105 10.9011 6.75971 10.311 6.60385 9.69014C6.45297 9.08948 6.38303 8.4869 6.61384 7.88913C6.80567 7.3905 7.13639 6.98429 7.55703 6.64738C7.92271 6.35475 8.34835 6.30951 8.80096 6.39229C9.23859 6.47218 9.65623 6.61657 10.0789 6.74749C10.6094 6.91305 11.141 7.06707 11.6995 7.1229C12.276 7.18066 12.8395 7.1229 13.399 6.9891C13.9675 6.85434 14.5161 6.65219 15.0796 6.5001C15.2754 6.44716 15.4742 6.40865 15.6761 6.38555C16.0627 6.34127 16.4244 6.40962 16.7342 6.64064C17.2887 7.05359 17.7283 7.5474 17.8822 8.22988C17.9201 8.3993 17.9381 8.57161 17.9341 8.74584L17.9351 8.74776Z" fill="#FEFEFE"/>
</g>
<defs>
<clipPath id="clip0_2757_59906">
<rect width="14" height="14" fill="white" transform="translate(5.19922 5.19922)"/>
</clipPath>
</defs>
</svg>
