<svg width="24" height="24" viewBox="0 0 24 24" fill="none" xmlns="http://www.w3.org/2000/svg">
<path d="M5.62218 8.4666C5.43979 6.76434 6.77379 5.27979 8.48579 5.27979H15.5721C17.2638 5.27979 18.5912 6.73093 18.4407 8.41591L17.755 16.0959C17.6224 17.5813 16.3777 18.7198 14.8864 18.7198H9.30865C7.83683 18.7198 6.60183 17.61 6.44503 16.1466L5.62218 8.4666Z" fill="#FDFDFD"/>
<path fill-rule="evenodd" clip-rule="evenodd" d="M5.89209 16.6735C5.99871 17.5352 6.4789 18.2687 7.1581 18.7198C7.61616 19.024 8.16474 19.1998 8.75029 19.1998H15.3682C15.9537 19.1998 16.5023 19.024 16.9604 18.7198C17.6396 18.2687 18.1198 17.5352 18.2264 16.6735L19.2955 8.03347C19.508 6.31569 18.1681 4.7998 16.4373 4.7998H7.6812C5.95032 4.7998 4.61044 6.31569 4.823 8.03347L5.89209 16.6735ZM7.6812 5.7598H16.4373C17.5912 5.7598 18.4844 6.7704 18.3427 7.91558L17.2736 16.5556C17.1546 17.5175 16.3374 18.2398 15.3682 18.2398H8.75029C7.78108 18.2398 6.96384 17.5175 6.84482 16.5556L5.77573 7.91558C5.63403 6.7704 6.52728 5.7598 7.6812 5.7598ZM15.3488 8.6538C15.5547 8.78503 15.754 8.92858 15.9456 9.08384L13.8387 11.3267L12.4775 9.38205C12.2643 9.07759 11.8117 9.08273 11.6056 9.39196L10.2345 11.4486C10.2133 11.4618 10.1923 11.4751 10.1714 11.4887L7.90099 9.28841C8.16451 9.05306 8.44468 8.8408 8.73876 8.65346L9.30452 9.21922C9.49197 9.40667 9.79589 9.40667 9.98334 9.21922C10.1708 9.03177 10.1708 8.72785 9.98334 8.5404L9.62568 8.18273C10.2457 7.91475 10.8996 7.75189 11.5639 7.69891V8.15981C11.5639 8.4249 11.7788 8.63981 12.0439 8.63981C12.309 8.63981 12.5239 8.4249 12.5239 8.15981V7.69898C13.177 7.75116 13.821 7.90961 14.4334 8.17074L14.4619 8.183L14.1045 8.5404C13.9171 8.72785 13.9171 9.03177 14.1045 9.21922C14.292 9.40667 14.5959 9.40667 14.7833 9.21922L15.3488 8.6538ZM13.4871 12.3584C13.4411 12.3254 13.3941 12.294 13.3461 12.2642L13.3307 12.275L13.3061 12.2398C13.2089 12.1819 13.1081 12.1306 13.0043 12.0863C12.6798 11.948 12.3324 11.8811 11.9829 11.8899C11.6335 11.8986 11.2894 11.9827 10.9713 12.1371C10.8043 12.2182 10.6463 12.3178 10.4998 12.4339C10.2829 12.6059 9.96469 12.6252 9.76589 12.4326L6.86576 9.622C6.68371 9.44557 6.66911 9.15677 6.84484 8.97405C7.45905 8.33542 8.17329 7.81394 8.95647 7.43374C9.87214 6.98923 10.863 6.74709 11.8691 6.72198L12.0444 6.71981C12.9913 6.71993 13.9299 6.91246 14.8099 7.28766C15.6086 7.62822 16.3447 8.11322 16.9861 8.72013C17.1703 8.89432 17.1692 9.18343 16.9956 9.36817L14.2205 12.3224C14.0309 12.5242 13.7121 12.5197 13.4871 12.3584ZM12.0536 10.4506L12.4019 10.9481C12.2552 10.9325 12.1073 10.9265 11.959 10.9302C11.8806 10.9321 11.8024 10.9368 11.7246 10.9442L12.0536 10.4506Z" fill="black"/>
<path fill-rule="evenodd" clip-rule="evenodd" d="M11.9995 16.3198C12.2646 16.3198 12.4795 16.5347 12.4795 16.7998V18.7198C12.4795 18.9849 12.2646 19.1998 11.9995 19.1998C11.7344 19.1998 11.5195 18.9849 11.5195 18.7198V16.7998C11.5195 16.5347 11.7344 16.3198 11.9995 16.3198Z" fill="black"/>
</svg>
